<svg xmlns="http://www.w3.org/2000/svg" viewBox="0 0 112 112" role="img" aria-label="coach female avatar">
<rect width="112" height="112" rx="24" fill="#F1EAFE"/>

<path d="M28 47c0-20 11-31 26-31s27 11 27 31v22c-5-4-7-10-7-18V39c-5-10-14-15-22-15-12 0-19 8-20 19v10c0 8-1 14-4 19z" fill="#3A211C"/><path d="M34 31c5-13 18-19 31-14 7 3 12 9 15 17-10-6-18-8-27-7-7 1-13 2-19 4z" fill="#3A211C"/>
<ellipse cx="56" cy="52" rx="25" ry="29" fill="#F4B184" stroke="#2A1C2F" stroke-width="2"/>
<path d="M37 44c4-3 9-4 13-1M62 43c5-3 10-2 14 1" stroke="#2A1C2F" stroke-width="2.4" stroke-linecap="round" fill="none"/>
<ellipse cx="45" cy="51" rx="4.7" ry="6.2" fill="#2A1C2F"/><ellipse cx="68" cy="51" rx="4.7" ry="6.2" fill="#2A1C2F"/>
<circle cx="43.5" cy="49" r="1.4" fill="white"/><circle cx="66.5" cy="49" r="1.4" fill="white"/>
<g fill="none" stroke="#2A1C2F" stroke-width="3"><circle cx="44" cy="49" r="10"/><circle cx="68" cy="49" r="10"/><path d="M54 49h4M34 47l-5-2M78 47l5-2"/></g>
<path d="M51 65c3 3 8 3 11 0" fill="none" stroke="#A33A37" stroke-width="2.3" stroke-linecap="round"/>
<circle cx="36" cy="61" r="4" fill="#EF9D95" opacity=".5"/><circle cx="76" cy="61" r="4" fill="#EF9D95" opacity=".5"/>
<path d="M48 75v8h16v-8" fill="#F4B184"/>
<path d="M35 106V88c4-7 11-11 21-11s17 4 21 11v18z" fill="#22233A"/><path d="M47 79l9 12 9-12 7 8-9 5 5 14H44l5-14-9-5z" fill="#11131F"/>

</svg>