<svg xmlns="http://www.w3.org/2000/svg" viewBox="0 0 240 240"><rect width="240" height="240" rx="48" fill="#f1eafe"/><circle cx="120" cy="92" r="48" fill="#f4c7a1"/><path d="M70 96c0-58 100-68 100 2-8-25-31-39-52-39-18 0-37 12-48 37z" fill="#3f235f"/><path d="M57 220c4-53 28-82 63-82s59 29 63 82" fill="#6d28d9"/><path d="M91 148l29 26 29-26 12 16-41 35-41-35z" fill="#fff"/><circle cx="102" cy="94" r="4" fill="#2d1b3d"/><circle cx="138" cy="94" r="4" fill="#2d1b3d"/><path d="M105 115c9 8 21 8 30 0" fill="none" stroke="#9b4b55" stroke-width="4" stroke-linecap="round"/><path d="M70 86c9-41 32-54 57-52 34 3 52 26 48 65-13-26-42-44-74-36-13 3-23 11-31 23z" fill="#4c1d72"/></svg>
