<svg xmlns="http://www.w3.org/2000/svg" viewBox="0 0 240 240"><rect width="240" height="240" rx="48" fill="#ebe9ff"/><circle cx="120" cy="94" r="47" fill="#dba47d"/><path d="M67 88c4-45 31-59 56-57 31 2 49 22 51 57-25-17-72-17-107 0z" fill="#231942"/><path d="M55 220c5-54 29-81 65-81s60 27 65 81" fill="#5b21b6"/><path d="M93 147l27 25 27-25 13 17-40 35-40-35z" fill="#fff"/><rect x="80" y="83" width="35" height="18" rx="7" fill="#171227"/><rect x="125" y="83" width="35" height="18" rx="7" fill="#171227"/><path d="M115 91h10" stroke="#171227" stroke-width="5"/><path d="M105 117c10 7 21 7 31 0" fill="none" stroke="#7b3d35" stroke-width="4" stroke-linecap="round"/></svg>
