<svg xmlns="http://www.w3.org/2000/svg" viewBox="0 0 112 112" role="img" aria-label="student male avatar">
<rect width="112" height="112" rx="24" fill="#EEF3FF"/>

<path d="M30 43c0-17 10-27 25-27 13 0 24 8 26 25-8-8-17-9-25-8-9 1-17 5-26 10z" fill="#211B22"/><path d="M34 25c8-10 18-13 31-8l-5 7c10-4 18-1 23 5-11-2-21 0-29 6-7-3-13-6-20-10z" fill="#211B22"/>
<ellipse cx="56" cy="52" rx="25" ry="29" fill="#F4B184" stroke="#2A1C2F" stroke-width="2"/>
<path d="M37 44c4-3 9-4 13-1M62 43c5-3 10-2 14 1" stroke="#2A1C2F" stroke-width="2.4" stroke-linecap="round" fill="none"/>
<ellipse cx="45" cy="51" rx="4.7" ry="6.2" fill="#2A1C2F"/><ellipse cx="68" cy="51" rx="4.7" ry="6.2" fill="#2A1C2F"/>
<circle cx="43.5" cy="49" r="1.4" fill="white"/><circle cx="66.5" cy="49" r="1.4" fill="white"/>

<path d="M51 65c3 3 8 3 11 0" fill="none" stroke="#A33A37" stroke-width="2.3" stroke-linecap="round"/>
<circle cx="36" cy="61" r="4" fill="#EF9D95" opacity=".5"/><circle cx="76" cy="61" r="4" fill="#EF9D95" opacity=".5"/>
<path d="M48 75v8h16v-8" fill="#F4B184"/>
<path d="M41 84l15 7 15-7v22H41z" fill="#F8FAFC"/><path d="M48 86l8 6 8-6-8 15z" fill="#6D28D9"/>
<path d="M34 106V89c4-8 11-12 22-12s18 4 22 12v17z" fill="#FFFFFF" stroke="#D8DEEA"/>
</svg>